<mxfile host="app.diagrams.net" modified="2024-06-15T09:14:25.429Z" agent="Mozilla/5.0 (Windows NT 10.0; Win64; x64) AppleWebKit/537.36 (KHTML, like Gecko) Chrome/125.0.0.0 Safari/537.36 Edg/125.0.0.0" etag="Kp-5RflJnQJos8Zgp_Sn" version="24.5.4" type="device">
  <diagram name="第 1 页" id="JEGbSmhRXVIx38oCnHWR">
    <mxGraphModel dx="1514" dy="-346" grid="1" gridSize="10" guides="1" tooltips="1" connect="1" arrows="1" fold="1" page="1" pageScale="1" pageWidth="827" pageHeight="1169" math="0" shadow="0">
      <root>
        <mxCell id="0" />
        <mxCell id="1" parent="0" />
        <mxCell id="ndv8Cv25vAUJIWjjO-GM-86" style="edgeStyle=orthogonalEdgeStyle;rounded=0;orthogonalLoop=1;jettySize=auto;html=1;exitX=1;exitY=0.5;exitDx=0;exitDy=0;labelBackgroundColor=none;fontColor=default;textShadow=0;" parent="1" source="ndv8Cv25vAUJIWjjO-GM-44" target="ndv8Cv25vAUJIWjjO-GM-45" edge="1">
          <mxGeometry relative="1" as="geometry" />
        </mxCell>
        <mxCell id="ndv8Cv25vAUJIWjjO-GM-87" value="否" style="edgeLabel;html=1;align=center;verticalAlign=middle;resizable=0;points=[];labelBackgroundColor=none;textShadow=0;" parent="ndv8Cv25vAUJIWjjO-GM-86" vertex="1" connectable="0">
          <mxGeometry x="-0.0555" y="3" relative="1" as="geometry">
            <mxPoint as="offset" />
          </mxGeometry>
        </mxCell>
        <mxCell id="ndv8Cv25vAUJIWjjO-GM-90" style="edgeStyle=orthogonalEdgeStyle;rounded=0;orthogonalLoop=1;jettySize=auto;html=1;exitX=0.5;exitY=1;exitDx=0;exitDy=0;labelBackgroundColor=none;fontColor=default;textShadow=0;" parent="1" source="ndv8Cv25vAUJIWjjO-GM-44" target="ndv8Cv25vAUJIWjjO-GM-88" edge="1">
          <mxGeometry relative="1" as="geometry" />
        </mxCell>
        <mxCell id="ndv8Cv25vAUJIWjjO-GM-91" value="是" style="edgeLabel;html=1;align=center;verticalAlign=middle;resizable=0;points=[];labelBackgroundColor=none;textShadow=0;" parent="ndv8Cv25vAUJIWjjO-GM-90" vertex="1" connectable="0">
          <mxGeometry x="-0.1314" y="-1" relative="1" as="geometry">
            <mxPoint as="offset" />
          </mxGeometry>
        </mxCell>
        <mxCell id="ndv8Cv25vAUJIWjjO-GM-44" value="包含起始词?" style="rhombus;strokeWidth=2;whiteSpace=wrap;labelBackgroundColor=none;fillColor=#fff2cc;strokeColor=#d6b656;textShadow=0;" parent="1" vertex="1">
          <mxGeometry x="297.81999999999994" y="1393" width="136" height="47" as="geometry" />
        </mxCell>
        <mxCell id="ndv8Cv25vAUJIWjjO-GM-45" value="输出提示并返回null" style="whiteSpace=wrap;strokeWidth=2;labelBackgroundColor=none;fillColor=#d5e8d4;strokeColor=#82b366;textShadow=0;" parent="1" vertex="1">
          <mxGeometry x="772.91" y="1498" width="154" height="33" as="geometry" />
        </mxCell>
        <mxCell id="ndv8Cv25vAUJIWjjO-GM-48" value="初始化bridgeWords和visited集合" style="whiteSpace=wrap;strokeWidth=2;labelBackgroundColor=none;fillColor=#d5e8d4;strokeColor=#82b366;textShadow=0;" parent="1" vertex="1">
          <mxGeometry x="265.81999999999994" y="1580" width="200" height="33" as="geometry" />
        </mxCell>
        <mxCell id="ndv8Cv25vAUJIWjjO-GM-49" value="初始化queue并将起始词入队" style="whiteSpace=wrap;strokeWidth=2;labelBackgroundColor=none;textShadow=0;" parent="1" vertex="1">
          <mxGeometry x="265.81999999999994" y="1664" width="200" height="33" as="geometry" />
        </mxCell>
        <mxCell id="ndv8Cv25vAUJIWjjO-GM-212" style="edgeStyle=orthogonalEdgeStyle;rounded=0;orthogonalLoop=1;jettySize=auto;html=1;exitX=0.5;exitY=1;exitDx=0;exitDy=0;entryX=1;entryY=0.5;entryDx=0;entryDy=0;" parent="1" source="ndv8Cv25vAUJIWjjO-GM-50" target="ndv8Cv25vAUJIWjjO-GM-198" edge="1">
          <mxGeometry relative="1" as="geometry" />
        </mxCell>
        <mxCell id="ndv8Cv25vAUJIWjjO-GM-50" value="标记起始词为已访问" style="whiteSpace=wrap;strokeWidth=2;labelBackgroundColor=none;textShadow=0;" parent="1" vertex="1">
          <mxGeometry x="519.9999999999999" y="1664.5" width="200" height="33" as="geometry" />
        </mxCell>
        <mxCell id="ndv8Cv25vAUJIWjjO-GM-62" value="" style="curved=1;startArrow=none;endArrow=block;entryX=0.5;entryY=0;rounded=0;labelBackgroundColor=none;fontColor=default;textShadow=0;" parent="1" source="ndv8Cv25vAUJIWjjO-GM-85" target="ndv8Cv25vAUJIWjjO-GM-44" edge="1">
          <mxGeometry relative="1" as="geometry">
            <Array as="points" />
            <mxPoint x="743.8199999999999" y="1373" as="sourcePoint" />
          </mxGeometry>
        </mxCell>
        <mxCell id="ndv8Cv25vAUJIWjjO-GM-67" value="" style="curved=1;startArrow=none;endArrow=block;exitX=0.5;exitY=1.02;entryX=0.5;entryY=-0.01;rounded=0;labelBackgroundColor=none;fontColor=default;textShadow=0;" parent="1" source="ndv8Cv25vAUJIWjjO-GM-48" target="ndv8Cv25vAUJIWjjO-GM-49" edge="1">
          <mxGeometry relative="1" as="geometry">
            <Array as="points" />
          </mxGeometry>
        </mxCell>
        <mxCell id="ndv8Cv25vAUJIWjjO-GM-68" value="" style="curved=1;startArrow=none;endArrow=block;exitX=1;exitY=0.5;entryX=0;entryY=0.5;rounded=0;labelBackgroundColor=none;fontColor=default;textShadow=0;exitDx=0;exitDy=0;entryDx=0;entryDy=0;" parent="1" source="ndv8Cv25vAUJIWjjO-GM-49" target="ndv8Cv25vAUJIWjjO-GM-50" edge="1">
          <mxGeometry relative="1" as="geometry">
            <Array as="points" />
          </mxGeometry>
        </mxCell>
        <mxCell id="ndv8Cv25vAUJIWjjO-GM-85" value="开始" style="strokeWidth=2;html=1;shape=mxgraph.flowchart.terminator;whiteSpace=wrap;labelBackgroundColor=none;fillColor=#dae8fc;strokeColor=#6c8ebf;textShadow=0;" parent="1" vertex="1">
          <mxGeometry x="340.81999999999994" y="1310" width="50" height="30" as="geometry" />
        </mxCell>
        <mxCell id="ndv8Cv25vAUJIWjjO-GM-92" style="edgeStyle=orthogonalEdgeStyle;rounded=0;orthogonalLoop=1;jettySize=auto;html=1;exitX=1;exitY=0.5;exitDx=0;exitDy=0;entryX=0;entryY=0.5;entryDx=0;entryDy=0;labelBackgroundColor=none;fontColor=default;textShadow=0;" parent="1" source="ndv8Cv25vAUJIWjjO-GM-88" target="ndv8Cv25vAUJIWjjO-GM-45" edge="1">
          <mxGeometry relative="1" as="geometry" />
        </mxCell>
        <mxCell id="ndv8Cv25vAUJIWjjO-GM-93" value="否" style="edgeLabel;html=1;align=center;verticalAlign=middle;resizable=0;points=[];labelBackgroundColor=none;textShadow=0;" parent="ndv8Cv25vAUJIWjjO-GM-92" vertex="1" connectable="0">
          <mxGeometry x="-0.2035" y="-2" relative="1" as="geometry">
            <mxPoint as="offset" />
          </mxGeometry>
        </mxCell>
        <mxCell id="ndv8Cv25vAUJIWjjO-GM-94" style="edgeStyle=orthogonalEdgeStyle;rounded=0;orthogonalLoop=1;jettySize=auto;html=1;exitX=0.5;exitY=1;exitDx=0;exitDy=0;entryX=0.5;entryY=0;entryDx=0;entryDy=0;labelBackgroundColor=none;fontColor=default;textShadow=0;" parent="1" source="ndv8Cv25vAUJIWjjO-GM-88" target="ndv8Cv25vAUJIWjjO-GM-48" edge="1">
          <mxGeometry relative="1" as="geometry" />
        </mxCell>
        <mxCell id="ndv8Cv25vAUJIWjjO-GM-145" value="是" style="edgeLabel;html=1;align=center;verticalAlign=middle;resizable=0;points=[];textShadow=0;" parent="ndv8Cv25vAUJIWjjO-GM-94" vertex="1" connectable="0">
          <mxGeometry x="-0.3131" y="1" relative="1" as="geometry">
            <mxPoint x="-2" y="2" as="offset" />
          </mxGeometry>
        </mxCell>
        <mxCell id="ndv8Cv25vAUJIWjjO-GM-88" value="包含结束词？" style="rhombus;strokeWidth=2;whiteSpace=wrap;labelBackgroundColor=none;fillColor=#fff2cc;strokeColor=#d6b656;textShadow=0;" parent="1" vertex="1">
          <mxGeometry x="297.81999999999994" y="1490" width="136" height="47" as="geometry" />
        </mxCell>
        <mxCell id="ndv8Cv25vAUJIWjjO-GM-120" style="edgeStyle=orthogonalEdgeStyle;rounded=0;orthogonalLoop=1;jettySize=auto;html=1;exitX=0.5;exitY=1;exitDx=0;exitDy=0;entryX=0.5;entryY=0;entryDx=0;entryDy=0;labelBackgroundColor=none;fontColor=default;textShadow=0;" parent="1" source="ndv8Cv25vAUJIWjjO-GM-99" target="ndv8Cv25vAUJIWjjO-GM-101" edge="1">
          <mxGeometry relative="1" as="geometry" />
        </mxCell>
        <mxCell id="ndv8Cv25vAUJIWjjO-GM-99" value="取邻居neighbor" style="whiteSpace=wrap;strokeWidth=2;labelBackgroundColor=none;textShadow=0;" parent="1" vertex="1">
          <mxGeometry x="265.81999999999994" y="1920" width="200" height="33" as="geometry" />
        </mxCell>
        <mxCell id="ndv8Cv25vAUJIWjjO-GM-113" style="edgeStyle=orthogonalEdgeStyle;rounded=0;orthogonalLoop=1;jettySize=auto;html=1;exitX=0.5;exitY=1;exitDx=0;exitDy=0;entryX=0.5;entryY=0;entryDx=0;entryDy=0;labelBackgroundColor=none;fontColor=default;textShadow=0;" parent="1" source="ndv8Cv25vAUJIWjjO-GM-101" target="ndv8Cv25vAUJIWjjO-GM-108" edge="1">
          <mxGeometry relative="1" as="geometry" />
        </mxCell>
        <mxCell id="ndv8Cv25vAUJIWjjO-GM-147" value="否" style="edgeLabel;html=1;align=center;verticalAlign=middle;resizable=0;points=[];textShadow=0;" parent="ndv8Cv25vAUJIWjjO-GM-113" vertex="1" connectable="0">
          <mxGeometry x="-0.1806" y="2" relative="1" as="geometry">
            <mxPoint x="-2" as="offset" />
          </mxGeometry>
        </mxCell>
        <mxCell id="ndv8Cv25vAUJIWjjO-GM-195" style="edgeStyle=orthogonalEdgeStyle;rounded=0;orthogonalLoop=1;jettySize=auto;html=1;exitX=0;exitY=0.5;exitDx=0;exitDy=0;entryX=0;entryY=0.5;entryDx=0;entryDy=0;" parent="1" source="ndv8Cv25vAUJIWjjO-GM-101" target="ndv8Cv25vAUJIWjjO-GM-189" edge="1">
          <mxGeometry relative="1" as="geometry">
            <Array as="points">
              <mxPoint x="220" y="2016" />
              <mxPoint x="220" y="1851" />
              <mxPoint x="298" y="1851" />
            </Array>
          </mxGeometry>
        </mxCell>
        <mxCell id="ndv8Cv25vAUJIWjjO-GM-197" value="是" style="edgeLabel;html=1;align=center;verticalAlign=middle;resizable=0;points=[];" parent="ndv8Cv25vAUJIWjjO-GM-195" vertex="1" connectable="0">
          <mxGeometry x="0.0069" y="1" relative="1" as="geometry">
            <mxPoint as="offset" />
          </mxGeometry>
        </mxCell>
        <mxCell id="ndv8Cv25vAUJIWjjO-GM-101" value="已访问neighbor?" style="rhombus;strokeWidth=2;whiteSpace=wrap;labelBackgroundColor=none;fillColor=#fff2cc;strokeColor=#d6b656;textShadow=0;" parent="1" vertex="1">
          <mxGeometry x="297.81999999999994" y="1992" width="136" height="47" as="geometry" />
        </mxCell>
        <mxCell id="ndv8Cv25vAUJIWjjO-GM-114" style="edgeStyle=orthogonalEdgeStyle;rounded=0;orthogonalLoop=1;jettySize=auto;html=1;exitX=0.5;exitY=1;exitDx=0;exitDy=0;labelBackgroundColor=none;fontColor=default;textShadow=0;" parent="1" source="ndv8Cv25vAUJIWjjO-GM-108" edge="1">
          <mxGeometry relative="1" as="geometry">
            <mxPoint x="365.86347826086967" y="2140" as="targetPoint" />
          </mxGeometry>
        </mxCell>
        <mxCell id="ndv8Cv25vAUJIWjjO-GM-139" value="否" style="edgeLabel;html=1;align=center;verticalAlign=middle;resizable=0;points=[];labelBackgroundColor=none;textShadow=0;" parent="ndv8Cv25vAUJIWjjO-GM-114" vertex="1" connectable="0">
          <mxGeometry x="-0.1574" relative="1" as="geometry">
            <mxPoint as="offset" />
          </mxGeometry>
        </mxCell>
        <mxCell id="ndv8Cv25vAUJIWjjO-GM-108" value="标记neighbor为已访问并入队" style="whiteSpace=wrap;strokeWidth=2;labelBackgroundColor=none;fillColor=#d5e8d4;strokeColor=#82b366;textShadow=0;" parent="1" vertex="1">
          <mxGeometry x="265.81999999999994" y="2075" width="200" height="33" as="geometry" />
        </mxCell>
        <mxCell id="ndv8Cv25vAUJIWjjO-GM-115" value="" style="edgeStyle=orthogonalEdgeStyle;rounded=0;orthogonalLoop=1;jettySize=auto;html=1;labelBackgroundColor=none;fontColor=default;textShadow=0;" parent="1" source="ndv8Cv25vAUJIWjjO-GM-110" target="ndv8Cv25vAUJIWjjO-GM-111" edge="1">
          <mxGeometry relative="1" as="geometry" />
        </mxCell>
        <mxCell id="ndv8Cv25vAUJIWjjO-GM-135" value="是" style="edgeLabel;html=1;align=center;verticalAlign=middle;resizable=0;points=[];labelBackgroundColor=none;textShadow=0;" parent="ndv8Cv25vAUJIWjjO-GM-115" vertex="1" connectable="0">
          <mxGeometry x="-0.2342" relative="1" as="geometry">
            <mxPoint as="offset" />
          </mxGeometry>
        </mxCell>
        <mxCell id="ndv8Cv25vAUJIWjjO-GM-117" style="edgeStyle=orthogonalEdgeStyle;rounded=0;orthogonalLoop=1;jettySize=auto;html=1;exitX=1;exitY=0.5;exitDx=0;exitDy=0;entryX=1;entryY=0.5;entryDx=0;entryDy=0;labelBackgroundColor=none;fontColor=default;textShadow=0;" parent="1" source="ndv8Cv25vAUJIWjjO-GM-110" target="ndv8Cv25vAUJIWjjO-GM-189" edge="1">
          <mxGeometry relative="1" as="geometry">
            <mxPoint x="399.81999999999994" y="1779.25" as="targetPoint" />
            <Array as="points">
              <mxPoint x="530" y="2168" />
              <mxPoint x="530" y="1851" />
              <mxPoint x="433" y="1851" />
            </Array>
          </mxGeometry>
        </mxCell>
        <mxCell id="ndv8Cv25vAUJIWjjO-GM-134" value="否" style="edgeLabel;html=1;align=center;verticalAlign=middle;resizable=0;points=[];labelBackgroundColor=none;textShadow=0;" parent="ndv8Cv25vAUJIWjjO-GM-117" vertex="1" connectable="0">
          <mxGeometry x="-0.0158" relative="1" as="geometry">
            <mxPoint as="offset" />
          </mxGeometry>
        </mxCell>
        <mxCell id="ndv8Cv25vAUJIWjjO-GM-110" value="包含结束词?" style="rhombus;strokeWidth=2;whiteSpace=wrap;labelBackgroundColor=none;fillColor=#fff2cc;strokeColor=#d6b656;textShadow=0;" parent="1" vertex="1">
          <mxGeometry x="297.81999999999994" y="2144" width="136" height="47" as="geometry" />
        </mxCell>
        <mxCell id="ndv8Cv25vAUJIWjjO-GM-183" style="edgeStyle=orthogonalEdgeStyle;rounded=0;orthogonalLoop=1;jettySize=auto;html=1;exitX=0.5;exitY=1;exitDx=0;exitDy=0;entryX=0.5;entryY=0;entryDx=0;entryDy=0;" parent="1" source="ndv8Cv25vAUJIWjjO-GM-111" target="ndv8Cv25vAUJIWjjO-GM-172" edge="1">
          <mxGeometry relative="1" as="geometry" />
        </mxCell>
        <mxCell id="ndv8Cv25vAUJIWjjO-GM-111" value="添加neighbor到bridgeWords" style="whiteSpace=wrap;strokeWidth=2;labelBackgroundColor=none;fillColor=#d5e8d4;strokeColor=#82b366;textShadow=0;" parent="1" vertex="1">
          <mxGeometry x="265.81999999999994" y="2233" width="200" height="33" as="geometry" />
        </mxCell>
        <mxCell id="ndv8Cv25vAUJIWjjO-GM-138" style="edgeStyle=orthogonalEdgeStyle;rounded=0;orthogonalLoop=1;jettySize=auto;html=1;exitX=0;exitY=0.5;exitDx=0;exitDy=0;labelBackgroundColor=none;fontColor=default;textShadow=0;entryX=0.183;entryY=0.182;entryDx=0;entryDy=0;entryPerimeter=0;" parent="1" source="ndv8Cv25vAUJIWjjO-GM-116" target="ndv8Cv25vAUJIWjjO-GM-189" edge="1">
          <mxGeometry relative="1" as="geometry">
            <mxPoint x="270" y="1744" as="targetPoint" />
            <Array as="points">
              <mxPoint x="302" y="2384" />
              <mxPoint x="190" y="2384" />
              <mxPoint x="190" y="1840" />
            </Array>
          </mxGeometry>
        </mxCell>
        <mxCell id="ndv8Cv25vAUJIWjjO-GM-122" style="edgeStyle=orthogonalEdgeStyle;rounded=0;orthogonalLoop=1;jettySize=auto;html=1;exitX=0.5;exitY=1;exitDx=0;exitDy=0;entryX=0.5;entryY=0;entryDx=0;entryDy=0;labelBackgroundColor=none;fontColor=default;textShadow=0;" parent="1" source="ndv8Cv25vAUJIWjjO-GM-119" target="ndv8Cv25vAUJIWjjO-GM-121" edge="1">
          <mxGeometry relative="1" as="geometry" />
        </mxCell>
        <mxCell id="ndv8Cv25vAUJIWjjO-GM-142" value="是" style="edgeLabel;html=1;align=center;verticalAlign=middle;resizable=0;points=[];labelBackgroundColor=none;textShadow=0;" parent="ndv8Cv25vAUJIWjjO-GM-122" vertex="1" connectable="0">
          <mxGeometry x="-0.0239" y="-4" relative="1" as="geometry">
            <mxPoint as="offset" />
          </mxGeometry>
        </mxCell>
        <mxCell id="ndv8Cv25vAUJIWjjO-GM-140" style="edgeStyle=orthogonalEdgeStyle;rounded=0;orthogonalLoop=1;jettySize=auto;html=1;exitX=1;exitY=0.5;exitDx=0;exitDy=0;labelBackgroundColor=none;fontColor=default;textShadow=0;" parent="1" source="ndv8Cv25vAUJIWjjO-GM-119" edge="1">
          <mxGeometry relative="1" as="geometry">
            <mxPoint x="850" y="1843" as="targetPoint" />
            <Array as="points">
              <mxPoint x="850" y="1843" />
            </Array>
          </mxGeometry>
        </mxCell>
        <mxCell id="ndv8Cv25vAUJIWjjO-GM-141" value="否" style="edgeLabel;html=1;align=center;verticalAlign=middle;resizable=0;points=[];labelBackgroundColor=none;textShadow=0;" parent="ndv8Cv25vAUJIWjjO-GM-140" vertex="1" connectable="0">
          <mxGeometry x="-0.2514" y="1" relative="1" as="geometry">
            <mxPoint as="offset" />
          </mxGeometry>
        </mxCell>
        <mxCell id="ndv8Cv25vAUJIWjjO-GM-119" value="桥接词集合为空?" style="rhombus;strokeWidth=2;whiteSpace=wrap;labelBackgroundColor=none;fillColor=#fff2cc;strokeColor=#d6b656;textShadow=0;" parent="1" vertex="1">
          <mxGeometry x="659.8199999999999" y="1820" width="136" height="47" as="geometry" />
        </mxCell>
        <mxCell id="ndv8Cv25vAUJIWjjO-GM-126" style="edgeStyle=orthogonalEdgeStyle;rounded=0;orthogonalLoop=1;jettySize=auto;html=1;labelBackgroundColor=none;fontColor=default;textShadow=0;" parent="1" source="ndv8Cv25vAUJIWjjO-GM-121" edge="1">
          <mxGeometry relative="1" as="geometry">
            <mxPoint x="727.8199999999999" y="2361" as="targetPoint" />
          </mxGeometry>
        </mxCell>
        <mxCell id="ndv8Cv25vAUJIWjjO-GM-121" value="输出没有桥接词的信息" style="whiteSpace=wrap;strokeWidth=2;labelBackgroundColor=none;fillColor=#d5e8d4;strokeColor=#82b366;textShadow=0;" parent="1" vertex="1">
          <mxGeometry x="639.8199999999999" y="2006" width="176" height="33" as="geometry" />
        </mxCell>
        <mxCell id="ndv8Cv25vAUJIWjjO-GM-125" value="结束" style="strokeWidth=2;html=1;shape=mxgraph.flowchart.terminator;whiteSpace=wrap;labelBackgroundColor=none;fillColor=#dae8fc;strokeColor=#6c8ebf;textShadow=0;" parent="1" vertex="1">
          <mxGeometry x="702.8199999999999" y="2365.5" width="50" height="30" as="geometry" />
        </mxCell>
        <mxCell id="ndv8Cv25vAUJIWjjO-GM-131" value="" style="edgeStyle=orthogonalEdgeStyle;rounded=0;orthogonalLoop=1;jettySize=auto;html=1;labelBackgroundColor=none;fontColor=default;textShadow=0;entryX=0.5;entryY=0;entryDx=0;entryDy=0;exitX=0.5;exitY=1;exitDx=0;exitDy=0;" parent="1" source="ndv8Cv25vAUJIWjjO-GM-189" target="ndv8Cv25vAUJIWjjO-GM-99" edge="1">
          <mxGeometry relative="1" as="geometry">
            <mxPoint x="365.81999999999994" y="1791" as="sourcePoint" />
            <mxPoint x="365.8148148148148" y="1831" as="targetPoint" />
          </mxGeometry>
        </mxCell>
        <mxCell id="ndv8Cv25vAUJIWjjO-GM-146" value="否" style="edgeLabel;html=1;align=center;verticalAlign=middle;resizable=0;points=[];textShadow=0;" parent="ndv8Cv25vAUJIWjjO-GM-131" vertex="1" connectable="0">
          <mxGeometry x="-0.5308" y="-2" relative="1" as="geometry">
            <mxPoint x="2" y="10" as="offset" />
          </mxGeometry>
        </mxCell>
        <mxCell id="ndv8Cv25vAUJIWjjO-GM-132" style="edgeStyle=orthogonalEdgeStyle;rounded=0;orthogonalLoop=1;jettySize=auto;html=1;exitX=1;exitY=0.25;exitDx=0;exitDy=0;entryX=0;entryY=0.5;entryDx=0;entryDy=0;labelBackgroundColor=none;fontColor=default;textShadow=0;" parent="1" source="ndv8Cv25vAUJIWjjO-GM-189" target="ndv8Cv25vAUJIWjjO-GM-119" edge="1">
          <mxGeometry relative="1" as="geometry">
            <mxPoint x="433.8199999999997" y="1767.5" as="sourcePoint" />
            <Array as="points">
              <mxPoint x="500" y="1844" />
              <mxPoint x="500" y="1844" />
            </Array>
          </mxGeometry>
        </mxCell>
        <mxCell id="ndv8Cv25vAUJIWjjO-GM-133" value="是" style="edgeLabel;html=1;align=center;verticalAlign=middle;resizable=0;points=[];labelBackgroundColor=none;textShadow=0;" parent="ndv8Cv25vAUJIWjjO-GM-132" vertex="1" connectable="0">
          <mxGeometry x="-0.212" y="-5" relative="1" as="geometry">
            <mxPoint x="7" y="-6" as="offset" />
          </mxGeometry>
        </mxCell>
        <mxCell id="ndv8Cv25vAUJIWjjO-GM-137" style="edgeStyle=orthogonalEdgeStyle;rounded=0;orthogonalLoop=1;jettySize=auto;html=1;exitX=0.5;exitY=1;exitDx=0;exitDy=0;entryX=1;entryY=0.5;entryDx=0;entryDy=0;entryPerimeter=0;labelBackgroundColor=none;fontColor=default;textShadow=0;" parent="1" source="ndv8Cv25vAUJIWjjO-GM-45" target="ndv8Cv25vAUJIWjjO-GM-125" edge="1">
          <mxGeometry relative="1" as="geometry" />
        </mxCell>
        <mxCell id="ndv8Cv25vAUJIWjjO-GM-143" value="" style="strokeWidth=2;html=1;shape=mxgraph.flowchart.annotation_2;align=left;labelPosition=right;pointerEvents=1;labelBackgroundColor=none;fillColor=#e1d5e7;strokeColor=#9673a6;textShadow=0;" parent="1" vertex="1">
          <mxGeometry x="110" y="1834" width="50" height="560" as="geometry" />
        </mxCell>
        <mxCell id="ndv8Cv25vAUJIWjjO-GM-144" value="广度优先遍历" style="text;html=1;align=center;verticalAlign=middle;resizable=0;points=[];autosize=1;strokeColor=#9673a6;fillColor=#e1d5e7;fontStyle=1;labelBackgroundColor=none;textShadow=0;" parent="1" vertex="1">
          <mxGeometry x="10" y="2099" width="100" height="30" as="geometry" />
        </mxCell>
        <mxCell id="ndv8Cv25vAUJIWjjO-GM-149" value="244:Start" style="strokeWidth=2;html=1;shape=mxgraph.flowchart.start_2;whiteSpace=wrap;fillColor=#dae8fc;strokeColor=#6c8ebf;" parent="1" vertex="1">
          <mxGeometry x="1170" y="1310" width="50" height="50" as="geometry" />
        </mxCell>
        <mxCell id="ndv8Cv25vAUJIWjjO-GM-150" value="245_a" style="strokeWidth=2;html=1;shape=mxgraph.flowchart.start_2;whiteSpace=wrap;fillColor=#fff2cc;strokeColor=#d6b656;" parent="1" vertex="1">
          <mxGeometry x="1170" y="1400.5" width="50" height="50" as="geometry" />
        </mxCell>
        <mxCell id="ndv8Cv25vAUJIWjjO-GM-151" value="245_b" style="strokeWidth=2;html=1;shape=mxgraph.flowchart.start_2;whiteSpace=wrap;fillColor=#fff2cc;strokeColor=#d6b656;" parent="1" vertex="1">
          <mxGeometry x="1260" y="1457" width="50" height="50" as="geometry" />
        </mxCell>
        <mxCell id="ndv8Cv25vAUJIWjjO-GM-152" style="edgeStyle=orthogonalEdgeStyle;rounded=0;orthogonalLoop=1;jettySize=auto;html=1;exitX=0.5;exitY=1;exitDx=0;exitDy=0;exitPerimeter=0;entryX=0.5;entryY=0;entryDx=0;entryDy=0;entryPerimeter=0;" parent="1" source="ndv8Cv25vAUJIWjjO-GM-149" target="ndv8Cv25vAUJIWjjO-GM-150" edge="1">
          <mxGeometry relative="1" as="geometry" />
        </mxCell>
        <mxCell id="ndv8Cv25vAUJIWjjO-GM-269" value="1" style="edgeLabel;html=1;align=center;verticalAlign=middle;resizable=0;points=[];" parent="ndv8Cv25vAUJIWjjO-GM-152" vertex="1" connectable="0">
          <mxGeometry x="-0.2963" y="-4" relative="1" as="geometry">
            <mxPoint y="1" as="offset" />
          </mxGeometry>
        </mxCell>
        <mxCell id="ndv8Cv25vAUJIWjjO-GM-154" style="rounded=0;orthogonalLoop=1;jettySize=auto;html=1;exitX=0.855;exitY=0.855;exitDx=0;exitDy=0;exitPerimeter=0;entryX=0.145;entryY=0.145;entryDx=0;entryDy=0;entryPerimeter=0;" parent="1" source="ndv8Cv25vAUJIWjjO-GM-150" target="ndv8Cv25vAUJIWjjO-GM-151" edge="1">
          <mxGeometry relative="1" as="geometry" />
        </mxCell>
        <mxCell id="ndv8Cv25vAUJIWjjO-GM-270" value="2" style="edgeLabel;html=1;align=center;verticalAlign=middle;resizable=0;points=[];" parent="ndv8Cv25vAUJIWjjO-GM-154" vertex="1" connectable="0">
          <mxGeometry x="0.0479" y="4" relative="1" as="geometry">
            <mxPoint x="1" as="offset" />
          </mxGeometry>
        </mxCell>
        <mxCell id="ndv8Cv25vAUJIWjjO-GM-156" style="edgeStyle=orthogonalEdgeStyle;rounded=0;orthogonalLoop=1;jettySize=auto;html=1;exitX=0.5;exitY=1;exitDx=0;exitDy=0;exitPerimeter=0;entryX=0.5;entryY=0;entryDx=0;entryDy=0;entryPerimeter=0;" parent="1" source="ndv8Cv25vAUJIWjjO-GM-150" target="ndv8Cv25vAUJIWjjO-GM-158" edge="1">
          <mxGeometry relative="1" as="geometry">
            <mxPoint x="1194.9999999999995" y="1528.9999999999998" as="targetPoint" />
            <Array as="points">
              <mxPoint x="1195" y="1490" />
              <mxPoint x="1195" y="1490" />
            </Array>
          </mxGeometry>
        </mxCell>
        <mxCell id="ndv8Cv25vAUJIWjjO-GM-274" value="5" style="edgeLabel;html=1;align=center;verticalAlign=middle;resizable=0;points=[];" parent="ndv8Cv25vAUJIWjjO-GM-156" vertex="1" connectable="0">
          <mxGeometry x="-0.1083" y="1" relative="1" as="geometry">
            <mxPoint as="offset" />
          </mxGeometry>
        </mxCell>
        <mxCell id="ndv8Cv25vAUJIWjjO-GM-157" style="rounded=0;orthogonalLoop=1;jettySize=auto;html=1;exitX=0.145;exitY=0.855;exitDx=0;exitDy=0;exitPerimeter=0;entryX=0.855;entryY=0.145;entryDx=0;entryDy=0;entryPerimeter=0;" parent="1" source="ndv8Cv25vAUJIWjjO-GM-151" target="ndv8Cv25vAUJIWjjO-GM-158" edge="1">
          <mxGeometry relative="1" as="geometry">
            <mxPoint x="1212.7499999999995" y="1536.25" as="targetPoint" />
          </mxGeometry>
        </mxCell>
        <mxCell id="ndv8Cv25vAUJIWjjO-GM-273" value="6" style="edgeLabel;html=1;align=center;verticalAlign=middle;resizable=0;points=[];" parent="ndv8Cv25vAUJIWjjO-GM-157" vertex="1" connectable="0">
          <mxGeometry x="-0.2495" y="-1" relative="1" as="geometry">
            <mxPoint x="1" as="offset" />
          </mxGeometry>
        </mxCell>
        <mxCell id="ndv8Cv25vAUJIWjjO-GM-158" value="249_a" style="strokeWidth=2;html=1;shape=mxgraph.flowchart.start_2;whiteSpace=wrap;fillColor=#fff2cc;strokeColor=#d6b656;" parent="1" vertex="1">
          <mxGeometry x="1170" y="1529" width="50" height="50" as="geometry" />
        </mxCell>
        <mxCell id="ndv8Cv25vAUJIWjjO-GM-159" value="249_b" style="strokeWidth=2;html=1;shape=mxgraph.flowchart.start_2;whiteSpace=wrap;fillColor=#fff2cc;strokeColor=#d6b656;" parent="1" vertex="1">
          <mxGeometry x="1260" y="1585.5" width="50" height="50" as="geometry" />
        </mxCell>
        <mxCell id="ndv8Cv25vAUJIWjjO-GM-160" value="7" style="rounded=0;orthogonalLoop=1;jettySize=auto;html=1;exitX=0.855;exitY=0.855;exitDx=0;exitDy=0;exitPerimeter=0;entryX=0.145;entryY=0.145;entryDx=0;entryDy=0;entryPerimeter=0;" parent="1" source="ndv8Cv25vAUJIWjjO-GM-158" target="ndv8Cv25vAUJIWjjO-GM-159" edge="1">
          <mxGeometry relative="1" as="geometry">
            <Array as="points" />
          </mxGeometry>
        </mxCell>
        <mxCell id="ndv8Cv25vAUJIWjjO-GM-161" style="edgeStyle=orthogonalEdgeStyle;rounded=0;orthogonalLoop=1;jettySize=auto;html=1;exitX=0.5;exitY=1;exitDx=0;exitDy=0;exitPerimeter=0;entryX=0.5;entryY=0;entryDx=0;entryDy=0;entryPerimeter=0;" parent="1" source="ndv8Cv25vAUJIWjjO-GM-158" edge="1" target="ndv8Cv25vAUJIWjjO-GM-164">
          <mxGeometry relative="1" as="geometry">
            <mxPoint x="1195" y="1657.5" as="targetPoint" />
            <Array as="points">
              <mxPoint x="1195" y="1618" />
              <mxPoint x="1196" y="1618" />
            </Array>
          </mxGeometry>
        </mxCell>
        <mxCell id="ndv8Cv25vAUJIWjjO-GM-275" value="8" style="edgeLabel;html=1;align=center;verticalAlign=middle;resizable=0;points=[];" parent="ndv8Cv25vAUJIWjjO-GM-161" vertex="1" connectable="0">
          <mxGeometry x="-0.0505" y="4" relative="1" as="geometry">
            <mxPoint as="offset" />
          </mxGeometry>
        </mxCell>
        <mxCell id="ndv8Cv25vAUJIWjjO-GM-162" style="rounded=0;orthogonalLoop=1;jettySize=auto;html=1;exitX=0.145;exitY=0.855;exitDx=0;exitDy=0;exitPerimeter=0;entryX=0.855;entryY=0.145;entryDx=0;entryDy=0;entryPerimeter=0;" parent="1" source="ndv8Cv25vAUJIWjjO-GM-159" edge="1">
          <mxGeometry relative="1" as="geometry">
            <mxPoint x="1213" y="1664.5" as="targetPoint" />
          </mxGeometry>
        </mxCell>
        <mxCell id="ndv8Cv25vAUJIWjjO-GM-164" value="254" style="strokeWidth=2;html=1;shape=mxgraph.flowchart.start_2;whiteSpace=wrap;fillColor=#d5e8d4;strokeColor=#82b366;" parent="1" vertex="1">
          <mxGeometry x="1170" y="1656" width="50" height="50" as="geometry" />
        </mxCell>
        <mxCell id="ndv8Cv25vAUJIWjjO-GM-165" value="246" style="strokeWidth=2;html=1;shape=mxgraph.flowchart.start_2;whiteSpace=wrap;fillColor=#d5e8d4;strokeColor=#82b366;" parent="1" vertex="1">
          <mxGeometry x="1370" y="1457" width="50" height="50" as="geometry" />
        </mxCell>
        <mxCell id="ndv8Cv25vAUJIWjjO-GM-166" value="250" style="strokeWidth=2;html=1;shape=mxgraph.flowchart.start_2;whiteSpace=wrap;fillColor=#d5e8d4;strokeColor=#82b366;" parent="1" vertex="1">
          <mxGeometry x="1370" y="1585.5" width="50" height="50" as="geometry" />
        </mxCell>
        <mxCell id="ndv8Cv25vAUJIWjjO-GM-167" style="edgeStyle=orthogonalEdgeStyle;rounded=0;orthogonalLoop=1;jettySize=auto;html=1;exitX=1;exitY=0.5;exitDx=0;exitDy=0;exitPerimeter=0;entryX=0;entryY=0.5;entryDx=0;entryDy=0;entryPerimeter=0;" parent="1" source="ndv8Cv25vAUJIWjjO-GM-159" target="ndv8Cv25vAUJIWjjO-GM-166" edge="1">
          <mxGeometry relative="1" as="geometry" />
        </mxCell>
        <mxCell id="ndv8Cv25vAUJIWjjO-GM-276" value="9" style="edgeLabel;html=1;align=center;verticalAlign=middle;resizable=0;points=[];" parent="ndv8Cv25vAUJIWjjO-GM-167" vertex="1" connectable="0">
          <mxGeometry x="0.05" y="-1" relative="1" as="geometry">
            <mxPoint as="offset" />
          </mxGeometry>
        </mxCell>
        <mxCell id="ndv8Cv25vAUJIWjjO-GM-168" style="edgeStyle=orthogonalEdgeStyle;rounded=0;orthogonalLoop=1;jettySize=auto;html=1;exitX=1;exitY=0.5;exitDx=0;exitDy=0;exitPerimeter=0;entryX=0;entryY=0.5;entryDx=0;entryDy=0;entryPerimeter=0;" parent="1" source="ndv8Cv25vAUJIWjjO-GM-151" target="ndv8Cv25vAUJIWjjO-GM-165" edge="1">
          <mxGeometry relative="1" as="geometry" />
        </mxCell>
        <mxCell id="ndv8Cv25vAUJIWjjO-GM-271" value="3" style="edgeLabel;html=1;align=center;verticalAlign=middle;resizable=0;points=[];" parent="ndv8Cv25vAUJIWjjO-GM-168" vertex="1" connectable="0">
          <mxGeometry x="-0.1167" y="4" relative="1" as="geometry">
            <mxPoint as="offset" />
          </mxGeometry>
        </mxCell>
        <mxCell id="ndv8Cv25vAUJIWjjO-GM-169" value="260" style="strokeWidth=2;html=1;shape=mxgraph.flowchart.start_2;whiteSpace=wrap;fillColor=#f8cecc;strokeColor=#b85450;" parent="1" vertex="1">
          <mxGeometry x="1170" y="1747" width="50" height="50" as="geometry" />
        </mxCell>
        <mxCell id="ndv8Cv25vAUJIWjjO-GM-181" style="edgeStyle=orthogonalEdgeStyle;rounded=0;orthogonalLoop=1;jettySize=auto;html=1;exitX=0.5;exitY=1;exitDx=0;exitDy=0;entryX=0.5;entryY=0;entryDx=0;entryDy=0;" parent="1" source="ndv8Cv25vAUJIWjjO-GM-172" target="ndv8Cv25vAUJIWjjO-GM-116" edge="1">
          <mxGeometry relative="1" as="geometry" />
        </mxCell>
        <mxCell id="ndv8Cv25vAUJIWjjO-GM-211" value="是" style="edgeLabel;html=1;align=center;verticalAlign=middle;resizable=0;points=[];" parent="ndv8Cv25vAUJIWjjO-GM-181" vertex="1" connectable="0">
          <mxGeometry x="-0.2865" relative="1" as="geometry">
            <mxPoint as="offset" />
          </mxGeometry>
        </mxCell>
        <mxCell id="ndv8Cv25vAUJIWjjO-GM-184" style="edgeStyle=orthogonalEdgeStyle;rounded=0;orthogonalLoop=1;jettySize=auto;html=1;exitX=0;exitY=0.5;exitDx=0;exitDy=0;" parent="1" source="ndv8Cv25vAUJIWjjO-GM-172" edge="1">
          <mxGeometry relative="1" as="geometry">
            <mxPoint x="190" y="2311.1428571428573" as="targetPoint" />
          </mxGeometry>
        </mxCell>
        <mxCell id="ndv8Cv25vAUJIWjjO-GM-210" value="否" style="edgeLabel;html=1;align=center;verticalAlign=middle;resizable=0;points=[];" parent="ndv8Cv25vAUJIWjjO-GM-184" vertex="1" connectable="0">
          <mxGeometry x="0.0648" y="-1" relative="1" as="geometry">
            <mxPoint as="offset" />
          </mxGeometry>
        </mxCell>
        <mxCell id="ndv8Cv25vAUJIWjjO-GM-172" value="是否屏幕输出？" style="rhombus;strokeWidth=2;whiteSpace=wrap;labelBackgroundColor=none;fillColor=#fff2cc;strokeColor=#d6b656;textShadow=0;" parent="1" vertex="1">
          <mxGeometry x="297.81999999999994" y="2287.5" width="136" height="47" as="geometry" />
        </mxCell>
        <mxCell id="ndv8Cv25vAUJIWjjO-GM-116" value="输出桥接词信息" style="whiteSpace=wrap;strokeWidth=2;labelBackgroundColor=none;textShadow=0;fillColor=#d5e8d4;strokeColor=#82b366;" parent="1" vertex="1">
          <mxGeometry x="301.81999999999994" y="2363" width="128" height="33" as="geometry" />
        </mxCell>
        <mxCell id="ndv8Cv25vAUJIWjjO-GM-201" value="" style="edgeStyle=orthogonalEdgeStyle;rounded=0;orthogonalLoop=1;jettySize=auto;html=1;" parent="1" source="ndv8Cv25vAUJIWjjO-GM-189" target="ndv8Cv25vAUJIWjjO-GM-99" edge="1">
          <mxGeometry relative="1" as="geometry" />
        </mxCell>
        <mxCell id="ndv8Cv25vAUJIWjjO-GM-189" value="遍历邻居" style="shape=parallelogram;html=1;strokeWidth=2;perimeter=parallelogramPerimeter;whiteSpace=wrap;rounded=1;arcSize=12;size=0.23;labelBackgroundColor=none;textShadow=0;fillColor=#f8cecc;strokeColor=#b85450;" parent="1" vertex="1">
          <mxGeometry x="277.91" y="1834" width="175.82" height="33" as="geometry" />
        </mxCell>
        <mxCell id="ndv8Cv25vAUJIWjjO-GM-207" value="" style="edgeStyle=orthogonalEdgeStyle;rounded=0;orthogonalLoop=1;jettySize=auto;html=1;" parent="1" source="ndv8Cv25vAUJIWjjO-GM-198" target="ndv8Cv25vAUJIWjjO-GM-189" edge="1">
          <mxGeometry relative="1" as="geometry" />
        </mxCell>
        <mxCell id="ndv8Cv25vAUJIWjjO-GM-198" value="取出队首元素current" style="whiteSpace=wrap;strokeWidth=2;labelBackgroundColor=none;textShadow=0;" parent="1" vertex="1">
          <mxGeometry x="265.81999999999994" y="1754" width="200" height="33" as="geometry" />
        </mxCell>
        <mxCell id="ndv8Cv25vAUJIWjjO-GM-213" style="edgeStyle=orthogonalEdgeStyle;rounded=0;orthogonalLoop=1;jettySize=auto;html=1;exitX=0.5;exitY=1;exitDx=0;exitDy=0;exitPerimeter=0;entryX=0.5;entryY=0;entryDx=0;entryDy=0;entryPerimeter=0;" parent="1" source="ndv8Cv25vAUJIWjjO-GM-164" target="ndv8Cv25vAUJIWjjO-GM-169" edge="1">
          <mxGeometry relative="1" as="geometry" />
        </mxCell>
        <mxCell id="ndv8Cv25vAUJIWjjO-GM-281" value="14" style="edgeLabel;html=1;align=center;verticalAlign=middle;resizable=0;points=[];" parent="ndv8Cv25vAUJIWjjO-GM-213" vertex="1" connectable="0">
          <mxGeometry x="-0.1707" y="-1" relative="1" as="geometry">
            <mxPoint as="offset" />
          </mxGeometry>
        </mxCell>
        <mxCell id="ndv8Cv25vAUJIWjjO-GM-283" value="" style="edgeStyle=orthogonalEdgeStyle;rounded=0;orthogonalLoop=1;jettySize=auto;html=1;" parent="1" source="ndv8Cv25vAUJIWjjO-GM-214" target="ndv8Cv25vAUJIWjjO-GM-219" edge="1">
          <mxGeometry relative="1" as="geometry" />
        </mxCell>
        <mxCell id="ndv8Cv25vAUJIWjjO-GM-214" value="261" style="strokeWidth=2;html=1;shape=mxgraph.flowchart.start_2;whiteSpace=wrap;" parent="1" vertex="1">
          <mxGeometry x="1170" y="1825.5" width="50" height="50" as="geometry" />
        </mxCell>
        <mxCell id="ndv8Cv25vAUJIWjjO-GM-215" style="edgeStyle=orthogonalEdgeStyle;rounded=0;orthogonalLoop=1;jettySize=auto;html=1;exitX=0.5;exitY=1;exitDx=0;exitDy=0;exitPerimeter=0;entryX=0.5;entryY=0;entryDx=0;entryDy=0;entryPerimeter=0;" parent="1" source="ndv8Cv25vAUJIWjjO-GM-169" target="ndv8Cv25vAUJIWjjO-GM-214" edge="1">
          <mxGeometry relative="1" as="geometry" />
        </mxCell>
        <mxCell id="ndv8Cv25vAUJIWjjO-GM-282" value="15" style="edgeLabel;html=1;align=center;verticalAlign=middle;resizable=0;points=[];" parent="ndv8Cv25vAUJIWjjO-GM-215" vertex="1" connectable="0">
          <mxGeometry x="-0.2281" y="-4" relative="1" as="geometry">
            <mxPoint as="offset" />
          </mxGeometry>
        </mxCell>
        <mxCell id="ndv8Cv25vAUJIWjjO-GM-216" value="262" style="strokeWidth=2;html=1;shape=mxgraph.flowchart.start_2;whiteSpace=wrap;fillColor=#fff2cc;strokeColor=#d6b656;" parent="1" vertex="1">
          <mxGeometry x="1170" y="1903" width="50" height="50" as="geometry" />
        </mxCell>
        <mxCell id="ndv8Cv25vAUJIWjjO-GM-217" value="16" style="edgeStyle=orthogonalEdgeStyle;rounded=0;orthogonalLoop=1;jettySize=auto;html=1;exitX=0.5;exitY=1;exitDx=0;exitDy=0;exitPerimeter=0;entryX=0.5;entryY=0;entryDx=0;entryDy=0;entryPerimeter=0;" parent="1" source="ndv8Cv25vAUJIWjjO-GM-214" target="ndv8Cv25vAUJIWjjO-GM-216" edge="1">
          <mxGeometry relative="1" as="geometry" />
        </mxCell>
        <mxCell id="ndv8Cv25vAUJIWjjO-GM-218" style="edgeStyle=orthogonalEdgeStyle;rounded=0;orthogonalLoop=1;jettySize=auto;html=1;exitX=1;exitY=0.5;exitDx=0;exitDy=0;exitPerimeter=0;entryX=1;entryY=0.5;entryDx=0;entryDy=0;entryPerimeter=0;curved=1;" parent="1" source="ndv8Cv25vAUJIWjjO-GM-216" target="ndv8Cv25vAUJIWjjO-GM-169" edge="1">
          <mxGeometry relative="1" as="geometry" />
        </mxCell>
        <mxCell id="ndv8Cv25vAUJIWjjO-GM-285" value="18" style="edgeLabel;html=1;align=center;verticalAlign=middle;resizable=0;points=[];" parent="ndv8Cv25vAUJIWjjO-GM-218" vertex="1" connectable="0">
          <mxGeometry x="-0.1964" y="4" relative="1" as="geometry">
            <mxPoint as="offset" />
          </mxGeometry>
        </mxCell>
        <mxCell id="ndv8Cv25vAUJIWjjO-GM-219" value="263" style="strokeWidth=2;html=1;shape=mxgraph.flowchart.start_2;whiteSpace=wrap;fillColor=#d5e8d4;strokeColor=#82b366;" parent="1" vertex="1">
          <mxGeometry x="1170" y="1989" width="50" height="50" as="geometry" />
        </mxCell>
        <mxCell id="ndv8Cv25vAUJIWjjO-GM-221" value="265_a" style="strokeWidth=2;html=1;shape=mxgraph.flowchart.start_2;whiteSpace=wrap;fillColor=#fff2cc;strokeColor=#d6b656;" parent="1" vertex="1">
          <mxGeometry x="1170" y="2075" width="50" height="50" as="geometry" />
        </mxCell>
        <mxCell id="ndv8Cv25vAUJIWjjO-GM-229" style="edgeStyle=orthogonalEdgeStyle;rounded=0;orthogonalLoop=1;jettySize=auto;html=1;exitX=0;exitY=0.5;exitDx=0;exitDy=0;exitPerimeter=0;curved=1;" parent="1" source="ndv8Cv25vAUJIWjjO-GM-222" edge="1">
          <mxGeometry relative="1" as="geometry">
            <mxPoint x="1170" y="1772" as="targetPoint" />
            <mxPoint x="1100" y="2168" as="sourcePoint" />
            <Array as="points">
              <mxPoint x="1100" y="2170" />
              <mxPoint x="1080" y="2170" />
              <mxPoint x="1080" y="1772" />
            </Array>
          </mxGeometry>
        </mxCell>
        <mxCell id="ndv8Cv25vAUJIWjjO-GM-289" value="22" style="edgeLabel;html=1;align=center;verticalAlign=middle;resizable=0;points=[];" parent="ndv8Cv25vAUJIWjjO-GM-229" vertex="1" connectable="0">
          <mxGeometry x="-0.5371" y="-3" relative="1" as="geometry">
            <mxPoint as="offset" />
          </mxGeometry>
        </mxCell>
        <mxCell id="ndv8Cv25vAUJIWjjO-GM-222" value="265_b" style="strokeWidth=2;html=1;shape=mxgraph.flowchart.start_2;whiteSpace=wrap;fillColor=#fff2cc;strokeColor=#d6b656;" parent="1" vertex="1">
          <mxGeometry x="1100" y="2141" width="50" height="50" as="geometry" />
        </mxCell>
        <mxCell id="ndv8Cv25vAUJIWjjO-GM-223" style="rounded=0;orthogonalLoop=1;jettySize=auto;html=1;exitX=0.145;exitY=0.855;exitDx=0;exitDy=0;exitPerimeter=0;entryX=0.855;entryY=0.145;entryDx=0;entryDy=0;entryPerimeter=0;" parent="1" source="ndv8Cv25vAUJIWjjO-GM-221" target="ndv8Cv25vAUJIWjjO-GM-222" edge="1">
          <mxGeometry relative="1" as="geometry">
            <Array as="points">
              <mxPoint x="1160" y="2130" />
            </Array>
          </mxGeometry>
        </mxCell>
        <mxCell id="ndv8Cv25vAUJIWjjO-GM-288" value="21" style="edgeLabel;html=1;align=center;verticalAlign=middle;resizable=0;points=[];" parent="ndv8Cv25vAUJIWjjO-GM-223" vertex="1" connectable="0">
          <mxGeometry x="-0.1571" relative="1" as="geometry">
            <mxPoint x="1" as="offset" />
          </mxGeometry>
        </mxCell>
        <mxCell id="ndv8Cv25vAUJIWjjO-GM-225" style="edgeStyle=orthogonalEdgeStyle;rounded=0;orthogonalLoop=1;jettySize=auto;html=1;exitX=0.5;exitY=1;exitDx=0;exitDy=0;exitPerimeter=0;entryX=0.5;entryY=0;entryDx=0;entryDy=0;entryPerimeter=0;" parent="1" source="ndv8Cv25vAUJIWjjO-GM-216" target="ndv8Cv25vAUJIWjjO-GM-219" edge="1">
          <mxGeometry relative="1" as="geometry" />
        </mxCell>
        <mxCell id="ndv8Cv25vAUJIWjjO-GM-284" value="17" style="edgeLabel;html=1;align=center;verticalAlign=middle;resizable=0;points=[];" parent="ndv8Cv25vAUJIWjjO-GM-225" vertex="1" connectable="0">
          <mxGeometry x="-0.4444" y="3" relative="1" as="geometry">
            <mxPoint as="offset" />
          </mxGeometry>
        </mxCell>
        <mxCell id="ndv8Cv25vAUJIWjjO-GM-226" style="edgeStyle=orthogonalEdgeStyle;rounded=0;orthogonalLoop=1;jettySize=auto;html=1;exitX=0.5;exitY=1;exitDx=0;exitDy=0;exitPerimeter=0;entryX=0.5;entryY=0;entryDx=0;entryDy=0;entryPerimeter=0;" parent="1" source="ndv8Cv25vAUJIWjjO-GM-219" target="ndv8Cv25vAUJIWjjO-GM-221" edge="1">
          <mxGeometry relative="1" as="geometry" />
        </mxCell>
        <mxCell id="ndv8Cv25vAUJIWjjO-GM-286" value="19" style="edgeLabel;html=1;align=center;verticalAlign=middle;resizable=0;points=[];" parent="ndv8Cv25vAUJIWjjO-GM-226" vertex="1" connectable="0">
          <mxGeometry x="-0.5694" y="1" relative="1" as="geometry">
            <mxPoint as="offset" />
          </mxGeometry>
        </mxCell>
        <mxCell id="ndv8Cv25vAUJIWjjO-GM-228" style="edgeStyle=orthogonalEdgeStyle;rounded=0;orthogonalLoop=1;jettySize=auto;html=1;exitX=0;exitY=0.5;exitDx=0;exitDy=0;exitPerimeter=0;entryX=0;entryY=0.5;entryDx=0;entryDy=0;entryPerimeter=0;curved=1;" parent="1" source="ndv8Cv25vAUJIWjjO-GM-221" target="ndv8Cv25vAUJIWjjO-GM-169" edge="1">
          <mxGeometry relative="1" as="geometry">
            <Array as="points">
              <mxPoint x="1120" y="2100" />
              <mxPoint x="1120" y="1772" />
            </Array>
          </mxGeometry>
        </mxCell>
        <mxCell id="ndv8Cv25vAUJIWjjO-GM-287" value="20" style="edgeLabel;html=1;align=center;verticalAlign=middle;resizable=0;points=[];" parent="ndv8Cv25vAUJIWjjO-GM-228" vertex="1" connectable="0">
          <mxGeometry x="-0.4591" y="-9" relative="1" as="geometry">
            <mxPoint y="1" as="offset" />
          </mxGeometry>
        </mxCell>
        <mxCell id="ndv8Cv25vAUJIWjjO-GM-230" value="266" style="strokeWidth=2;html=1;shape=mxgraph.flowchart.start_2;whiteSpace=wrap;fillColor=#d5e8d4;strokeColor=#82b366;" parent="1" vertex="1">
          <mxGeometry x="1170" y="2210" width="50" height="50" as="geometry" />
        </mxCell>
        <mxCell id="ndv8Cv25vAUJIWjjO-GM-231" style="rounded=0;orthogonalLoop=1;jettySize=auto;html=1;exitX=0.855;exitY=0.855;exitDx=0;exitDy=0;exitPerimeter=0;entryX=0.145;entryY=0.145;entryDx=0;entryDy=0;entryPerimeter=0;" parent="1" source="ndv8Cv25vAUJIWjjO-GM-222" target="ndv8Cv25vAUJIWjjO-GM-230" edge="1">
          <mxGeometry relative="1" as="geometry" />
        </mxCell>
        <mxCell id="ndv8Cv25vAUJIWjjO-GM-291" value="24" style="edgeLabel;html=1;align=center;verticalAlign=middle;resizable=0;points=[];" parent="ndv8Cv25vAUJIWjjO-GM-231" vertex="1" connectable="0">
          <mxGeometry x="-0.0266" y="5" relative="1" as="geometry">
            <mxPoint x="-1" as="offset" />
          </mxGeometry>
        </mxCell>
        <mxCell id="ndv8Cv25vAUJIWjjO-GM-232" value="267" style="strokeWidth=2;html=1;shape=mxgraph.flowchart.start_2;whiteSpace=wrap;fillColor=#fff2cc;strokeColor=#d6b656;" parent="1" vertex="1">
          <mxGeometry x="1170" y="2290" width="50" height="50" as="geometry" />
        </mxCell>
        <mxCell id="ndv8Cv25vAUJIWjjO-GM-233" style="edgeStyle=orthogonalEdgeStyle;rounded=0;orthogonalLoop=1;jettySize=auto;html=1;exitX=0.5;exitY=1;exitDx=0;exitDy=0;exitPerimeter=0;entryX=0.5;entryY=0;entryDx=0;entryDy=0;entryPerimeter=0;" parent="1" source="ndv8Cv25vAUJIWjjO-GM-230" target="ndv8Cv25vAUJIWjjO-GM-232" edge="1">
          <mxGeometry relative="1" as="geometry">
            <Array as="points">
              <mxPoint x="1195" y="2270" />
              <mxPoint x="1195" y="2270" />
            </Array>
          </mxGeometry>
        </mxCell>
        <mxCell id="ndv8Cv25vAUJIWjjO-GM-292" value="25" style="edgeLabel;html=1;align=center;verticalAlign=middle;resizable=0;points=[];" parent="ndv8Cv25vAUJIWjjO-GM-233" vertex="1" connectable="0">
          <mxGeometry x="-0.3833" relative="1" as="geometry">
            <mxPoint y="1" as="offset" />
          </mxGeometry>
        </mxCell>
        <mxCell id="ndv8Cv25vAUJIWjjO-GM-236" style="edgeStyle=orthogonalEdgeStyle;rounded=0;orthogonalLoop=1;jettySize=auto;html=1;exitX=0;exitY=0.5;exitDx=0;exitDy=0;exitPerimeter=0;curved=1;" parent="1" source="ndv8Cv25vAUJIWjjO-GM-234" edge="1">
          <mxGeometry relative="1" as="geometry">
            <mxPoint x="1169.8571428571431" y="1772" as="targetPoint" />
            <mxPoint x="1170" y="2382.5" as="sourcePoint" />
            <Array as="points">
              <mxPoint x="1040" y="2391" />
              <mxPoint x="1040" y="1772" />
            </Array>
          </mxGeometry>
        </mxCell>
        <mxCell id="ndv8Cv25vAUJIWjjO-GM-290" value="23" style="edgeLabel;html=1;align=center;verticalAlign=middle;resizable=0;points=[];" parent="ndv8Cv25vAUJIWjjO-GM-236" vertex="1" connectable="0">
          <mxGeometry x="-0.149" y="-4" relative="1" as="geometry">
            <mxPoint as="offset" />
          </mxGeometry>
        </mxCell>
        <mxCell id="ndv8Cv25vAUJIWjjO-GM-234" value="268" style="strokeWidth=2;html=1;shape=mxgraph.flowchart.start_2;whiteSpace=wrap;fillColor=#d5e8d4;strokeColor=#82b366;" parent="1" vertex="1">
          <mxGeometry x="1170" y="2365.5" width="50" height="50" as="geometry" />
        </mxCell>
        <mxCell id="ndv8Cv25vAUJIWjjO-GM-235" style="edgeStyle=orthogonalEdgeStyle;rounded=0;orthogonalLoop=1;jettySize=auto;html=1;exitX=0.5;exitY=1;exitDx=0;exitDy=0;exitPerimeter=0;entryX=0.5;entryY=0;entryDx=0;entryDy=0;entryPerimeter=0;" parent="1" source="ndv8Cv25vAUJIWjjO-GM-232" target="ndv8Cv25vAUJIWjjO-GM-234" edge="1">
          <mxGeometry relative="1" as="geometry" />
        </mxCell>
        <mxCell id="ndv8Cv25vAUJIWjjO-GM-294" value="27" style="edgeLabel;html=1;align=center;verticalAlign=middle;resizable=0;points=[];" parent="ndv8Cv25vAUJIWjjO-GM-235" vertex="1" connectable="0">
          <mxGeometry x="-0.6667" y="3" relative="1" as="geometry">
            <mxPoint y="1" as="offset" />
          </mxGeometry>
        </mxCell>
        <mxCell id="ndv8Cv25vAUJIWjjO-GM-237" style="edgeStyle=orthogonalEdgeStyle;rounded=0;orthogonalLoop=1;jettySize=auto;html=1;exitX=1;exitY=0.5;exitDx=0;exitDy=0;exitPerimeter=0;entryX=1;entryY=0.5;entryDx=0;entryDy=0;entryPerimeter=0;curved=1;" parent="1" source="ndv8Cv25vAUJIWjjO-GM-232" target="ndv8Cv25vAUJIWjjO-GM-169" edge="1">
          <mxGeometry relative="1" as="geometry">
            <Array as="points">
              <mxPoint x="1280" y="2315" />
              <mxPoint x="1280" y="1772" />
            </Array>
          </mxGeometry>
        </mxCell>
        <mxCell id="ndv8Cv25vAUJIWjjO-GM-293" value="26" style="edgeLabel;html=1;align=center;verticalAlign=middle;resizable=0;points=[];" parent="ndv8Cv25vAUJIWjjO-GM-237" vertex="1" connectable="0">
          <mxGeometry x="-0.6697" y="15" relative="1" as="geometry">
            <mxPoint y="1" as="offset" />
          </mxGeometry>
        </mxCell>
        <mxCell id="ndv8Cv25vAUJIWjjO-GM-238" value="273_a" style="strokeWidth=2;html=1;shape=mxgraph.flowchart.start_2;whiteSpace=wrap;fillColor=#fff2cc;strokeColor=#d6b656;" parent="1" vertex="1">
          <mxGeometry x="1370" y="1747" width="50" height="50" as="geometry" />
        </mxCell>
        <mxCell id="ndv8Cv25vAUJIWjjO-GM-239" value="273_b" style="strokeWidth=2;html=1;shape=mxgraph.flowchart.start_2;whiteSpace=wrap;fillColor=#fff2cc;strokeColor=#d6b656;" parent="1" vertex="1">
          <mxGeometry x="1370" y="1825.5" width="50" height="50" as="geometry" />
        </mxCell>
        <mxCell id="ndv8Cv25vAUJIWjjO-GM-242" style="rounded=0;orthogonalLoop=1;jettySize=auto;html=1;exitX=0.855;exitY=0.145;exitDx=0;exitDy=0;exitPerimeter=0;entryX=0.5;entryY=1;entryDx=0;entryDy=0;entryPerimeter=0;curved=1;" parent="1" source="ndv8Cv25vAUJIWjjO-GM-239" target="ndv8Cv25vAUJIWjjO-GM-244" edge="1">
          <mxGeometry relative="1" as="geometry">
            <mxPoint x="1560" y="1560" as="targetPoint" />
            <mxPoint x="1490" y="1780" as="sourcePoint" />
            <Array as="points">
              <mxPoint x="1565" y="1760" />
            </Array>
          </mxGeometry>
        </mxCell>
        <mxCell id="ndv8Cv25vAUJIWjjO-GM-279" value="12" style="edgeLabel;html=1;align=center;verticalAlign=middle;resizable=0;points=[];" parent="ndv8Cv25vAUJIWjjO-GM-242" vertex="1" connectable="0">
          <mxGeometry x="0.3212" y="16" relative="1" as="geometry">
            <mxPoint y="1" as="offset" />
          </mxGeometry>
        </mxCell>
        <mxCell id="ndv8Cv25vAUJIWjjO-GM-243" style="edgeStyle=orthogonalEdgeStyle;rounded=0;orthogonalLoop=1;jettySize=auto;html=1;exitX=1;exitY=0.5;exitDx=0;exitDy=0;exitPerimeter=0;entryX=0;entryY=0.5;entryDx=0;entryDy=0;entryPerimeter=0;" parent="1" source="ndv8Cv25vAUJIWjjO-GM-169" target="ndv8Cv25vAUJIWjjO-GM-238" edge="1">
          <mxGeometry relative="1" as="geometry" />
        </mxCell>
        <mxCell id="ndv8Cv25vAUJIWjjO-GM-295" value="28" style="edgeLabel;html=1;align=center;verticalAlign=middle;resizable=0;points=[];" parent="ndv8Cv25vAUJIWjjO-GM-243" vertex="1" connectable="0">
          <mxGeometry x="-0.0133" y="1" relative="1" as="geometry">
            <mxPoint as="offset" />
          </mxGeometry>
        </mxCell>
        <mxCell id="ndv8Cv25vAUJIWjjO-GM-244" value="276:End" style="strokeWidth=2;html=1;shape=mxgraph.flowchart.start_2;whiteSpace=wrap;fillColor=#dae8fc;strokeColor=#6c8ebf;" parent="1" vertex="1">
          <mxGeometry x="1540" y="1520" width="50" height="50" as="geometry" />
        </mxCell>
        <mxCell id="ndv8Cv25vAUJIWjjO-GM-246" value="274" style="strokeWidth=2;html=1;shape=mxgraph.flowchart.start_2;whiteSpace=wrap;fillColor=#d5e8d4;strokeColor=#82b366;" parent="1" vertex="1">
          <mxGeometry x="1540" y="1825.5" width="50" height="50" as="geometry" />
        </mxCell>
        <mxCell id="ndv8Cv25vAUJIWjjO-GM-251" style="rounded=0;orthogonalLoop=1;jettySize=auto;html=1;exitX=0.5;exitY=0;exitDx=0;exitDy=0;exitPerimeter=0;entryX=0.145;entryY=0.855;entryDx=0;entryDy=0;entryPerimeter=0;curved=1;" parent="1" source="ndv8Cv25vAUJIWjjO-GM-238" target="ndv8Cv25vAUJIWjjO-GM-244" edge="1">
          <mxGeometry relative="1" as="geometry">
            <Array as="points">
              <mxPoint x="1430" y="1620" />
            </Array>
          </mxGeometry>
        </mxCell>
        <mxCell id="ndv8Cv25vAUJIWjjO-GM-278" value="11" style="edgeLabel;html=1;align=center;verticalAlign=middle;resizable=0;points=[];" parent="ndv8Cv25vAUJIWjjO-GM-251" vertex="1" connectable="0">
          <mxGeometry x="0.0957" y="-19" relative="1" as="geometry">
            <mxPoint as="offset" />
          </mxGeometry>
        </mxCell>
        <mxCell id="ndv8Cv25vAUJIWjjO-GM-252" style="edgeStyle=orthogonalEdgeStyle;rounded=0;orthogonalLoop=1;jettySize=auto;html=1;exitX=1;exitY=0.5;exitDx=0;exitDy=0;exitPerimeter=0;entryX=1;entryY=0.5;entryDx=0;entryDy=0;entryPerimeter=0;curved=1;" parent="1" source="ndv8Cv25vAUJIWjjO-GM-246" target="ndv8Cv25vAUJIWjjO-GM-244" edge="1">
          <mxGeometry relative="1" as="geometry" />
        </mxCell>
        <mxCell id="ndv8Cv25vAUJIWjjO-GM-253" style="edgeStyle=orthogonalEdgeStyle;rounded=0;orthogonalLoop=1;jettySize=auto;html=1;exitX=1;exitY=0.5;exitDx=0;exitDy=0;exitPerimeter=0;entryX=0.145;entryY=0.145;entryDx=0;entryDy=0;entryPerimeter=0;curved=1;" parent="1" source="ndv8Cv25vAUJIWjjO-GM-165" target="ndv8Cv25vAUJIWjjO-GM-244" edge="1">
          <mxGeometry relative="1" as="geometry" />
        </mxCell>
        <mxCell id="ndv8Cv25vAUJIWjjO-GM-272" value="4" style="edgeLabel;html=1;align=center;verticalAlign=middle;resizable=0;points=[];" parent="ndv8Cv25vAUJIWjjO-GM-253" vertex="1" connectable="0">
          <mxGeometry x="-0.2435" y="-7" relative="1" as="geometry">
            <mxPoint as="offset" />
          </mxGeometry>
        </mxCell>
        <mxCell id="ndv8Cv25vAUJIWjjO-GM-255" style="edgeStyle=orthogonalEdgeStyle;rounded=0;orthogonalLoop=1;jettySize=auto;html=1;exitX=0.5;exitY=0;exitDx=0;exitDy=0;exitPerimeter=0;entryX=0;entryY=0.5;entryDx=0;entryDy=0;entryPerimeter=0;curved=1;" parent="1" source="ndv8Cv25vAUJIWjjO-GM-166" target="ndv8Cv25vAUJIWjjO-GM-244" edge="1">
          <mxGeometry relative="1" as="geometry" />
        </mxCell>
        <mxCell id="ndv8Cv25vAUJIWjjO-GM-277" value="10" style="edgeLabel;html=1;align=center;verticalAlign=middle;resizable=0;points=[];" parent="ndv8Cv25vAUJIWjjO-GM-255" vertex="1" connectable="0">
          <mxGeometry x="-0.0216" y="-4" relative="1" as="geometry">
            <mxPoint x="-1" as="offset" />
          </mxGeometry>
        </mxCell>
        <mxCell id="ndv8Cv25vAUJIWjjO-GM-256" style="edgeStyle=orthogonalEdgeStyle;rounded=0;orthogonalLoop=1;jettySize=auto;html=1;exitX=1;exitY=0.5;exitDx=0;exitDy=0;exitPerimeter=0;entryX=0;entryY=0.5;entryDx=0;entryDy=0;entryPerimeter=0;" parent="1" source="ndv8Cv25vAUJIWjjO-GM-239" target="ndv8Cv25vAUJIWjjO-GM-246" edge="1">
          <mxGeometry relative="1" as="geometry" />
        </mxCell>
        <mxCell id="ndv8Cv25vAUJIWjjO-GM-296" value="29" style="edgeLabel;html=1;align=center;verticalAlign=middle;resizable=0;points=[];" parent="ndv8Cv25vAUJIWjjO-GM-256" vertex="1" connectable="0">
          <mxGeometry x="0.2333" relative="1" as="geometry">
            <mxPoint as="offset" />
          </mxGeometry>
        </mxCell>
        <mxCell id="ndv8Cv25vAUJIWjjO-GM-257" style="rounded=0;orthogonalLoop=1;jettySize=auto;html=1;exitX=0.5;exitY=1;exitDx=0;exitDy=0;exitPerimeter=0;entryX=0.5;entryY=0;entryDx=0;entryDy=0;entryPerimeter=0;" parent="1" source="ndv8Cv25vAUJIWjjO-GM-238" target="ndv8Cv25vAUJIWjjO-GM-239" edge="1">
          <mxGeometry relative="1" as="geometry" />
        </mxCell>
        <mxCell id="ndv8Cv25vAUJIWjjO-GM-280" value="13" style="text;html=1;align=center;verticalAlign=middle;resizable=0;points=[];autosize=1;strokeColor=none;fillColor=none;" parent="1" vertex="1">
          <mxGeometry x="1600" y="1668" width="40" height="30" as="geometry" />
        </mxCell>
      </root>
    </mxGraphModel>
  </diagram>
</mxfile>
